 <svg
      data-logo="logo"
      xmlns="http://www.w3.org/2000/svg"
      viewBox="0 0 218 48"
      width="200"
      height="60"
    >
      <g id="logogram" transform="translate(0, 3.5) rotate(0) ">
        <path
          d="M45.8693 4.61295C46.667 3.72652 47.5535 2.99522 48.4621 2.41904C50.0576 1.42181 51.7418 0.889954 53.4704 0.889954V15.3609C52.2072 10.9731 49.4814 7.20574 45.8693 4.61295ZM67.3873 40.89H16.1296C7.7086 40.89 0.905273 34.0645 0.905273 25.6656C0.905273 17.6213 7.15458 11.0174 15.0659 10.4634V0.889954C16.8388 0.889954 18.5895 1.39965 20.2294 2.41904C21.138 2.97306 22.0244 3.70436 22.8222 4.54646C26.0798 2.26391 30.0244 0.934275 34.3014 0.934275C34.3014 10.1753 30.9773 20.9232 20.1629 20.9454H34.1906C33.7917 19.1503 32.1518 17.8207 30.2017 17.7985H38.3568C36.4067 17.7985 34.7668 19.1503 34.3679 20.9675H47.4427C50.0576 20.9675 52.6504 21.4772 55.0881 22.4966C57.5036 23.4938 59.7197 24.9786 61.559 26.8179C63.4205 28.6794 64.8831 30.8733 65.8803 33.2888C66.8776 35.6822 67.3873 38.275 67.3873 40.89ZM23.6864 10.7293C24.0188 11.5936 24.9053 12.5686 26.1463 13.2778C27.3873 13.9869 28.6726 14.275 29.5812 14.142C29.2488 13.2778 28.3623 12.3027 27.1213 11.5936C25.8803 10.8844 24.595 10.5963 23.6864 10.7293ZM42.3457 13.2778C41.1047 13.9869 39.8194 14.275 38.9108 14.142C39.2432 13.2778 40.1297 12.3027 41.3706 11.5936C42.6116 10.8844 43.897 10.5963 44.8055 10.7293C44.4953 11.5936 43.5867 12.5686 42.3457 13.2778Z"
          fill="#491566"
        />
      </g>
      <g id="logotype" transform="translate(74, 1)">
        <path
          fill="#491566"
          d="M10.67 31.30L10.67 31.30L10.44 31.76Q10.44 32.26 11.84 32.71Q13.23 33.16 14.90 33.16Q16.56 33.16 18.56 32.67Q20.56 32.17 22.04 31.45Q23.52 30.74 24.48 29.95Q25.45 29.16 25.45 28.58L25.45 28.58Q25.45 27.85 23.74 27.22Q22.03 26.58 18.77 25.82Q15.52 25.06 14.01 23.90Q12.49 22.74 12.49 21.07Q12.49 19.41 13.69 17.88Q14.89 16.36 16.81 15.18Q18.73 14.01 21.00 13.08L21.00 13.08Q25.70 11.19 29.72 11.19L29.72 11.19Q31.26 11.19 32.44 11.46L32.44 11.46Q34.69 11.99 34.69 12.86Q34.69 13.73 34.54 14.05Q34.39 14.36 34.29 14.47Q34.20 14.57 34.05 14.67Q33.91 14.77 33.84 14.83L33.84 14.83Q33.09 15.46 29.72 15.61L29.72 15.61Q28.56 15.66 28.46 15.73Q28.35 15.80 28.28 15.80Q28.20 15.80 28.10 15.66Q27.99 15.53 27.99 15.22Q27.99 14.91 28.66 14.09L28.66 14.09Q26.58 14.21 24.21 15.05Q21.84 15.89 20.10 16.94Q18.36 17.99 17.19 19.00Q16.03 20.02 16.03 20.44Q16.03 20.86 16.29 21.13L16.29 21.13Q17.01 21.90 20.27 22.74L20.27 22.74Q23.65 23.61 24.78 24.14Q25.91 24.67 26.65 25.15Q27.40 25.63 27.84 26.12L27.84 26.12Q28.88 27.32 28.88 28.55Q28.88 29.78 28.23 30.86Q27.57 31.93 26.24 32.94Q24.92 33.95 23.12 34.74L23.12 34.74Q19.19 36.50 13.76 36.50L13.76 36.50Q9.79 36.50 8.70 34.39L8.70 34.39Q8.41 33.86 8.41 33.29Q8.41 32.72 8.67 32.26Q8.94 31.80 9.32 31.56L9.32 31.56Q10.05 31.10 10.36 31.10Q10.67 31.10 10.67 31.30ZM41.41 14.09L42.21 13.99L42.91 14.16Q43.07 14.16 43.19 14.31Q43.31 14.47 43.31 14.60Q43.31 14.74 42.95 15.34Q42.59 15.94 42.10 16.70Q41.62 17.46 41.58 17.53L41.58 17.53Q42.91 17.42 43.47 17.42Q44.02 17.42 44.23 17.50Q44.44 17.58 44.70 17.93Q44.96 18.28 45.19 18.46Q45.41 18.64 45.41 19.00Q45.41 19.35 44.97 19.60Q44.54 19.85 44.04 19.90L44.04 19.90Q40.08 20.29 39.67 20.31L39.67 20.31Q38.28 22.43 35.80 26.92Q33.31 31.40 33.16 32.53L33.16 32.53Q33.09 33.04 33.09 33.37L33.09 33.37Q33.09 34.03 33.79 34.03Q34.49 34.03 35.34 33.50Q36.20 32.96 36.92 32.33L36.92 32.33Q38.83 30.62 38.97 30.62L38.97 30.62Q39.41 30.62 39.41 32.15L39.41 32.15Q39.41 32.99 38.64 33.66L38.64 33.66Q36.92 35.15 35.74 35.90Q34.56 36.65 33.38 36.65L33.38 36.65Q33.12 36.65 32.90 36.60L32.90 36.60Q31.53 36.34 30.89 35.60Q30.25 34.85 30.26 33.59Q30.27 32.33 31.01 30.52Q31.75 28.72 32.88 26.69L32.88 26.69Q34.73 23.37 36.57 20.47L36.57 20.47L35.92 20.55Q33.94 20.77 33.62 20.77L33.62 20.77L33.46 20.77Q32.97 20.77 32.51 20.58Q32.04 20.38 32.04 20.09Q32.04 19.80 32.29 19.53Q32.54 19.25 32.59 19.10L32.59 19.10Q32.71 18.72 33.49 18.26Q34.27 17.80 34.66 17.77Q35.05 17.75 35.42 17.73Q35.79 17.71 36.24 17.70Q36.69 17.68 36.93 17.66L36.93 17.66L38.47 17.59Q39.91 15.44 40.44 14.83Q40.98 14.21 41.07 14.15Q41.15 14.09 41.41 14.09L41.41 14.09ZM44.28 25.61L43.56 26.69Q47.60 22.11 50.43 22.11L50.43 22.11Q51.13 22.11 51.59 22.52Q52.04 22.94 52.04 23.61Q52.04 24.28 51.09 25.84Q50.14 27.40 49.34 28.48L49.34 28.48Q48.91 29.03 48.37 29.03Q47.84 29.03 47.54 28.63Q47.24 28.24 47.24 27.71L47.24 27.71Q47.24 26.53 48.50 25.05L48.50 25.05L48.47 25.01Q47.90 25.06 45.67 27.23Q43.44 29.40 41.88 31.12Q40.32 32.84 38.49 35.30L38.49 35.30Q37.96 36.03 37.59 36.03Q37.22 36.03 36.62 35.80Q36.01 35.57 35.88 35.47Q35.75 35.37 35.75 35.13Q35.75 34.89 35.89 34.57Q36.03 34.26 36.39 33.68Q36.76 33.09 37.51 31.80Q38.25 30.50 39.82 27.87Q41.39 25.23 41.70 24.69L41.70 24.69Q42.35 23.56 42.76 23.05L42.76 23.05Q43.53 22.07 45.36 22.07L45.36 22.07Q45.77 22.07 45.77 22.58L45.77 22.58Q45.77 23.39 44.28 25.61L44.28 25.61ZM61.32 17.24L61.32 17.24Q61.32 18.21 60.41 19.19Q59.51 20.17 58.53 20.17Q57.54 20.17 57.54 19.15Q57.54 18.12 58.41 17.19Q59.27 16.26 60.31 16.26L60.31 16.26Q60.77 16.26 61.05 16.52Q61.32 16.77 61.32 17.24ZM58.55 32.15L58.55 32.15Q58.55 32.67 58.45 32.89L58.45 32.89Q57.61 34.60 55.78 35.65Q53.95 36.70 52.60 36.70Q51.25 36.70 50.28 35.79Q49.31 34.89 49.31 33.95Q49.31 33.01 50.25 31.21Q51.19 29.42 52.13 27.90Q53.07 26.38 53.07 26.25Q53.07 26.12 52.72 25.75Q52.36 25.37 52.36 25.19Q52.36 25.01 53.07 24.25Q53.78 23.49 54.80 22.75Q55.82 22.00 56.36 22.00Q56.89 22.00 57.32 22.48Q57.75 22.96 57.75 23.35Q57.75 23.75 53.68 30.75L53.68 30.75Q53.63 30.86 53.40 31.21Q53.17 31.56 53.04 31.79Q52.91 32.02 52.74 32.34L52.74 32.34Q52.40 33.03 52.40 33.49L52.40 33.49Q52.40 34.07 53.19 34.07Q53.97 34.07 54.82 33.53Q55.66 32.99 56.28 32.34L56.28 32.34Q57.88 30.62 58.11 30.62L58.11 30.62Q58.55 30.62 58.55 32.15ZM71.54 22.84L71.54 22.84Q71.54 24.02 70.22 26.28Q68.91 28.55 66.85 30.87Q64.79 33.20 62.48 34.90Q60.17 36.60 58.88 36.60L58.88 36.60Q58.18 36.60 57.59 36.09Q57.01 35.57 57.01 34.45Q57.01 33.33 58.07 30.92Q59.13 28.51 60.16 26.86L60.16 26.86Q59.25 27.52 59.06 27.52Q58.86 27.52 58.56 27.08Q58.26 26.63 58.26 26.39Q58.26 26.14 58.35 26.02L58.35 26.02Q61.71 22.28 63.10 22.28L63.10 22.28Q63.68 22.28 64.07 22.62Q64.46 22.96 64.46 23.44Q64.46 23.92 63.30 26.19Q62.14 28.46 60.98 30.78Q59.82 33.09 59.82 33.69L59.82 33.69Q59.82 33.80 59.92 33.80L59.92 33.80Q60.36 33.80 62.32 32.03Q64.28 30.26 65.49 28.74Q66.70 27.22 67.62 25.68Q68.53 24.14 68.53 23.66Q68.53 23.18 68.34 22.87Q68.14 22.55 68.14 22.18Q68.14 21.82 68.64 21.36Q69.15 20.91 69.93 20.91L69.93 20.91Q71.54 20.91 71.54 22.84ZM81.78 23.22L81.78 23.22Q81.78 24.34 80.86 25.20Q79.95 26.05 78.79 26.05L78.79 26.05Q78.41 26.05 78.29 25.87Q78.17 25.69 78.17 25.40Q78.17 25.11 78.24 24.84L78.24 24.84Q77.62 25.05 76.87 25.47Q76.12 25.90 75.03 26.74Q73.93 27.57 73.93 27.98L73.93 27.98Q73.93 28.12 74.33 28.12Q74.74 28.12 75.57 27.84Q76.41 27.56 76.74 27.56Q77.08 27.56 77.18 27.59L77.18 27.59Q77.40 27.71 77.66 28.11Q77.91 28.51 77.91 28.75Q77.91 28.98 77.47 29.35Q77.03 29.73 76.46 29.92Q75.90 30.12 75.71 30.22L75.71 30.22Q72.10 32.24 72.10 32.99L72.10 32.99Q72.10 34.33 74.38 34.33L74.38 34.33Q75.83 34.33 77.30 33.40L77.30 33.40Q78.55 32.62 79.55 31.80Q80.55 30.99 80.81 30.80Q81.08 30.62 81.21 30.62L81.21 30.62Q81.66 30.62 81.66 31.61Q81.66 32.60 81.54 32.92Q81.42 33.23 80.85 33.69L80.85 33.69Q77.20 36.67 73.93 36.67L73.93 36.67Q72.19 36.67 71.15 36.19L71.15 36.19Q69.23 35.32 69.23 33.52L69.23 33.52Q69.23 31.16 72.50 29.95L72.50 29.95Q71.85 29.66 71.66 29.21Q71.47 28.75 71.47 27.75Q71.47 26.75 72.40 25.64Q73.33 24.52 74.68 23.80L74.68 23.80Q77.69 22.17 80.05 22.17L80.05 22.17Q80.61 22.17 81.20 22.45Q81.78 22.72 81.78 23.22ZM89.71 18.50L89.71 18.50L90.20 18.38Q90.30 18.38 90.30 18.58Q90.30 18.77 89.71 19.22Q89.13 19.66 88.30 19.66Q87.47 19.66 87.00 19.18Q86.53 18.71 86.53 17.94L86.53 17.94Q86.53 16.31 88.65 14.71Q90.77 13.12 93.86 12.15Q96.95 11.19 99.79 11.19L99.79 11.19Q103.94 11.19 105.97 12.54Q107.99 13.89 107.99 16.16L107.99 16.16Q107.99 19.06 103.96 21.78L103.96 21.78Q101.84 23.22 99.38 24.07L99.38 24.07Q102.08 24.36 103.69 25.81L103.69 25.81Q104.90 26.91 104.90 28.60Q104.90 30.29 103.28 32.04Q101.67 33.80 98.99 34.95Q96.30 36.10 93.50 36.10L93.50 36.10Q90.27 36.10 88.75 34.68L88.75 34.68Q88.07 34.03 88.07 33.53Q88.07 33.03 88.32 32.46L88.32 32.46Q87.07 34.72 86.49 35.86L86.49 35.86Q86.24 36.38 85.46 36.38Q84.68 36.38 84.25 35.97Q83.83 35.56 83.83 35.04Q83.83 34.53 83.98 34.14L83.98 34.14Q84.75 32.12 89.41 24.70Q94.06 17.27 95.11 16.09L95.11 16.09Q95.65 15.42 97.58 15.42L97.58 15.42Q98.35 15.42 98.35 15.77L98.35 15.77Q98.35 16.02 96.08 19.61Q93.81 23.20 93.71 23.37L93.71 23.37Q96.08 22.69 98.57 21.50Q101.05 20.31 102.91 18.81Q104.76 17.30 104.76 16.09L104.76 16.09Q104.76 14.09 100.42 14.09L100.42 14.09Q95.88 14.09 91.67 16.50L91.67 16.50Q90.63 17.10 90.08 17.59Q89.54 18.09 89.54 18.29Q89.54 18.50 89.71 18.50ZM92.78 26.67L92.78 26.67Q92.47 26.67 92.10 25.95L92.10 25.95Q90.48 28.55 88.70 31.73L88.70 31.73Q89.50 30.62 91.04 30.62L91.04 30.62Q92.06 30.62 92.06 30.87L92.06 30.87Q92.06 30.98 91.84 31.06L91.84 31.06Q91.16 31.32 91.16 31.83L91.16 31.83Q91.16 33.06 93.77 33.06L93.77 33.06Q97.31 33.06 100.18 30.60L100.18 30.60Q101.72 29.30 101.72 28.33L101.72 28.33Q101.72 27.73 100.47 27.01L100.47 27.01Q99.02 26.21 96.05 26.21L96.05 26.21Q93.98 26.21 93.40 26.44Q92.82 26.67 92.78 26.67ZM119.22 10.35Q120.04 10.35 120.66 10.84Q121.29 11.32 121.29 12.28Q121.29 13.24 120.23 15.28Q119.17 17.32 117.68 19.45Q116.20 21.58 114.32 23.97L114.32 23.97Q111.34 27.76 108.61 30.79L108.61 30.79Q108.59 30.99 108.46 31.55Q108.33 32.10 108.33 32.67Q108.33 33.23 108.86 33.68Q109.38 34.14 110.15 34.14Q110.91 34.14 111.79 33.59Q112.67 33.04 113.32 32.38L113.32 32.38Q115.03 30.62 115.44 30.62Q115.85 30.62 115.85 31.86L115.85 31.86L115.85 32.21Q115.85 32.87 115.61 33.18L115.61 33.18Q114.18 34.94 112.38 35.80Q110.59 36.67 108.98 36.67Q107.38 36.67 106.54 35.68Q105.70 34.70 105.70 32.99L105.70 32.99Q105.70 29.66 107.49 25.16Q109.27 20.65 111.51 17.49L111.51 17.49Q116.55 10.35 119.22 10.35L119.22 10.35ZM118.45 13.19L118.45 13.19Q118.45 12.93 118.28 12.93L118.28 12.93Q117.68 12.93 115.14 16.35Q112.59 19.76 111.45 21.80Q110.32 23.83 109.31 26.91L109.31 26.91Q111.32 24.52 114.89 19.45Q118.45 14.38 118.45 13.19ZM125.68 22.98Q126.19 22.98 126.73 23.44Q127.27 23.90 127.27 24.85Q127.27 25.80 126.60 27.31Q125.94 28.82 124.77 30.39Q123.61 31.95 122.22 33.33Q120.83 34.70 119.21 35.58Q117.60 36.46 116.28 36.46Q114.96 36.46 114.17 35.63Q113.38 34.80 113.38 33.33Q113.38 31.85 114.10 30.05Q114.83 28.26 115.97 26.88Q117.12 25.51 118.45 24.41L118.45 24.41Q121.24 22.17 123.34 22.17L123.34 22.17Q124.28 22.17 124.76 22.64L124.76 22.64Q124.93 22.79 124.93 22.91L124.93 22.91L124.93 23.01Q125.17 22.98 125.68 22.98ZM123.95 25.25L123.95 25.25L123.83 25.25Q123.24 25.25 123.24 24.38L123.24 24.38Q121.99 24.79 120.62 25.81Q119.25 26.84 118.18 28.24L118.18 28.24Q115.99 31.04 115.96 32.98L115.96 32.98Q115.96 33.93 116.66 33.93Q117.36 33.93 118.74 33.01Q120.13 32.09 121.48 30.38Q122.84 28.67 123.52 27.41Q124.19 26.16 124.19 25.70Q124.19 25.25 123.95 25.25ZM132.22 24.64Q133.87 23.51 135.46 22.89Q137.04 22.28 138.21 22.28Q139.37 22.28 139.69 22.94L139.69 22.94Q140.36 22.17 141.35 22.12L141.35 22.12Q141.64 22.11 142.07 22.11Q142.50 22.11 142.60 22.22Q142.70 22.33 142.79 22.64Q142.87 22.94 142.89 22.98Q142.91 23.01 142.91 23.09Q142.91 23.17 142.82 23.28Q142.74 23.39 142.62 23.49Q142.51 23.59 142.50 23.61L142.50 23.61Q138.72 29.03 134.77 35.97L134.77 35.97Q138.84 32.36 142.05 30.79L142.05 30.79Q142.26 30.69 142.45 30.69L142.45 30.69Q142.72 30.69 142.80 31.04Q142.89 31.39 142.89 32.04Q142.89 32.68 142.81 32.84Q142.74 32.99 142.02 33.45Q141.30 33.92 140.16 34.65Q139.01 35.38 137.73 36.27L137.73 36.27Q134.65 38.41 132.67 40.77L132.67 40.77Q130.11 43.86 129.00 45.76L129.00 45.76Q128.59 46.49 127.61 46.49L127.61 46.49Q125.68 46.49 125.68 44.66L125.68 44.66Q125.68 42.80 127.51 40.85L127.51 40.85Q128.88 39.40 130.02 38.48Q131.17 37.56 131.27 37.44L131.27 37.44Q132.53 35.54 134.70 32.05L134.70 32.05Q132.86 33.98 131.12 35.13Q129.39 36.27 128.53 36.27L128.53 36.27Q125.92 36.27 125.92 34.03L125.92 34.03Q125.92 32.26 126.83 30.45Q127.73 28.63 129.15 27.21Q130.57 25.78 132.22 24.64ZM138.72 24.21L138.72 24.21Q136.74 24.64 134.99 25.62Q133.25 26.60 132.12 27.72Q131.00 28.84 130.17 30.02L130.17 30.02Q128.64 32.22 128.64 33.44L128.64 33.44Q128.64 33.73 128.78 33.73Q128.93 33.73 129.43 33.42Q129.94 33.11 130.86 32.37Q131.78 31.63 132.91 30.60L132.91 30.60Q135.52 28.19 138.72 24.21Z"
        />
      </g>
    </svg>